<svg
  width="54"
  height="54"
  viewBox="0 0 54 54"
  fill="none"
  xmlns="http://www.w3.org/2000/svg"
>
<rect x="1.5" y="1.5" width="51" height="51" rx="2.5" fill="white" />
<rect
    x="1.5"
    y="1.5"
    width="51"
    height="51"
    rx="2.5"
    stroke="black"
    stroke-width="3"
  />
<path
    fill-rule="evenodd"
    clip-rule="evenodd"
    d="M13.4 39.2187V37.5187C14.4086 37.5187 15.1902 37.2246 15.8272 36.7266C16.4785 36.2175 17.0216 35.4605 17.4745 34.4771C18.3895 32.4899 18.8472 29.7837 19.1953 26.9495C19.2815 26.2477 19.361 25.5361 19.44 24.8292C19.6725 22.7484 19.9006 20.7083 20.2801 19.0806C20.535 17.9873 20.8787 16.9774 21.4013 16.225C21.9481 15.4378 22.73 14.8875 23.784 14.8875C25.0241 14.8875 25.8564 15.6433 26.3819 16.626C26.8899 17.5761 27.1835 18.8502 27.3786 20.225C27.576 21.6164 27.6835 23.2011 27.7748 24.8169C27.796 25.1918 27.8163 25.5683 27.8366 25.9452C27.891 26.9529 27.9455 27.9633 28.0172 28.9531C29.4793 29.1068 30.5136 29.6868 31.314 30.5259C32.0054 31.2507 32.5192 32.1826 32.9873 33.0315C33.1041 33.2434 33.2181 33.45 33.3312 33.6471C33.9289 34.6876 34.5764 35.6232 35.6202 36.3183C36.657 37.0088 38.1738 37.5187 40.6 37.5187V39.325H31.6014C30.6193 39.325 29.7842 38.9998 29.1042 38.4156C28.442 37.8467 27.9634 37.0646 27.6056 36.1945C26.9796 34.6724 26.6562 32.7084 26.455 30.6593C25.4767 30.7895 24.885 31.179 24.4267 31.6805C24.1213 32.0149 23.8558 32.4219 23.5813 32.9053C23.4457 33.1439 23.313 33.392 23.1719 33.6558L23.1675 33.6639C23.0265 33.9275 22.8776 34.2057 22.7188 34.4854C22.0794 35.6113 21.2433 36.8293 19.7729 37.7454C18.3053 38.6598 16.2966 39.2187 13.4 39.2187ZM28.1666 30.689C28.3639 32.6094 28.6638 34.2981 29.1778 35.548C29.4755 36.2719 29.8228 36.7917 30.2121 37.1261C30.5836 37.4453 31.0256 37.625 31.6014 37.625H34.5199C33.239 36.7224 32.4695 35.56 31.8571 34.4938C31.7069 34.2323 31.5688 33.9831 31.4374 33.7457C30.9838 32.9268 30.6085 32.2492 30.0839 31.6993C29.6261 31.2193 29.0502 30.8435 28.1666 30.689ZM26.3136 28.964C24.911 29.1329 23.9278 29.7062 23.1717 30.5339C22.74 31.0064 22.4012 31.5407 22.103 32.0658C21.9567 32.3234 21.8153 32.5878 21.6776 32.8452L21.6686 32.862C21.5263 33.1279 21.3872 33.3877 21.2405 33.6459C20.6581 34.6715 19.9934 35.6051 18.8739 36.3026C18.6608 36.4354 18.428 36.5616 18.1722 36.6789C18.4952 36.2199 18.7747 35.7178 19.0186 35.1881C20.0576 32.932 20.5358 29.9803 20.8826 27.1567C20.9757 26.3984 21.0594 25.6507 21.1408 24.9229C21.3697 22.8766 21.5809 20.9882 21.9357 19.4666C22.1754 18.4383 22.4604 17.6801 22.7975 17.1948C23.1104 16.7444 23.4192 16.5875 23.784 16.5875C24.1857 16.5875 24.538 16.7829 24.8827 17.4276C25.2448 18.1049 25.5068 19.1342 25.6955 20.4638C25.8818 21.7768 25.9862 23.2974 26.0775 24.9128C26.0981 25.2777 26.1181 25.6477 26.1382 26.0206C26.1907 26.9943 26.2443 27.9878 26.3136 28.964Z"
    fill="#0657F9"
  />
<path
    fill-rule="evenodd"
    clip-rule="evenodd"
    d="M14.4074 28.0625H13.4V26.3625H14.4074V28.0625ZM17.4296 28.0625H15.4148V26.3625H17.4296V28.0625ZM20.4518 28.0625H18.437V26.3625H20.4518V28.0625ZM23.4741 28.0625H21.4592V26.3625H23.4741V28.0625ZM26.4963 28.0625H24.4815V26.3625H26.4963V28.0625ZM29.5185 28.0625H27.5037V26.3625H29.5185V28.0625ZM32.5407 28.0625H30.5259V26.3625H32.5407V28.0625ZM35.5629 28.0625H33.5481V26.3625H35.5629V28.0625ZM38.5852 28.0625H36.5704V26.3625H38.5852V28.0625ZM40.6 28.0625H39.5926V26.3625H40.6V28.0625Z"
    fill="#0657F9"
  />
</svg>
